<svg width="507" height="76" viewBox="0 0 507 76" fill="none" xmlns="http://www.w3.org/2000/svg">
<path d="M76.0242 37.9953V37.9762C76.0242 26.7319 71.1269 16.6338 63.3503 9.68965L63.3123 9.65798C63.2163 9.55449 63.109 9.46208 62.9924 9.3825L62.986 9.37933C56.0792 3.31711 47.1971 -0.0178329 38.0057 7.1722e-05C28.4014 7.1722e-05 19.6332 3.56558 12.9495 9.44899L12.9906 9.41416C12.9101 9.47525 12.8358 9.54419 12.7689 9.61999V9.62315C8.75079 13.1798 5.53455 17.5493 3.33322 22.4422C1.13189 27.3351 -0.0042665 32.6398 1.20393e-05 38.0048C1.20393e-05 49.2459 4.8909 59.344 12.6612 66.2914L12.6992 66.323C12.7998 66.4371 12.9124 66.5401 13.035 66.6302L13.0413 66.6333C19.9463 72.6866 28.8217 76.0166 38.0057 75.9999C47.2327 76.0141 56.1461 72.6532 63.0652 66.551L63.024 66.5858C67.1118 63.0332 70.3885 58.6443 72.6324 53.716C74.8764 48.7878 76.0352 43.4353 76.0305 38.0206V37.9984L76.0242 37.9953ZM61.89 62.71C60.007 61.1874 57.982 59.8492 55.8429 58.7138L55.637 58.6125C57.5788 53.0173 58.7477 46.567 58.8585 39.8572V39.8065H72.356C71.9008 48.4872 68.1631 56.6708 61.8995 62.7005L61.89 62.71ZM39.824 57.9444C43.8881 58.1629 47.6862 59.0558 51.1896 60.5093L50.9615 60.4269C48.155 66.8233 44.2049 71.2185 39.824 72.1843V57.9444ZM39.824 54.3219V39.8065H55.2442C55.1219 45.8174 54.0793 51.7741 52.1526 57.4694L52.2761 57.0546C48.3433 55.4387 44.1605 54.5153 39.9127 54.325L39.8272 54.3219H39.824ZM39.824 36.184V21.6686C44.1864 21.4696 48.4811 20.515 52.5169 18.8472L52.2666 18.9391C54.0247 24.0657 55.1048 29.9744 55.2442 36.1175V36.184H39.824ZM39.824 18.0461V3.81257C44.2049 4.77836 48.155 9.15451 50.9615 15.5699C47.6862 16.9315 43.8881 17.8213 39.9159 18.043L39.824 18.0461ZM48.8645 5.38C52.5972 6.62456 56.0881 8.50113 59.1848 10.9278L59.1119 10.8708C57.7087 11.9727 56.1343 13.0113 54.4745 13.9138L54.2971 14.0025C52.9558 10.8382 51.1117 7.91155 48.836 5.33567L48.8645 5.3705V5.38ZM36.1938 3.82207V18.0461C32.2865 17.8469 28.4423 16.9793 24.8282 15.4812L25.0563 15.5636C27.8755 9.16717 31.8193 4.7752 36.2002 3.80941L36.1938 3.82207ZM21.7239 13.993C20.0068 13.0695 18.3707 12.0028 16.833 10.8043L16.909 10.8613C19.9156 8.50585 23.2973 6.67321 26.9126 5.44017L27.1533 5.36734C24.9372 7.87344 23.1316 10.7141 21.8031 13.784L21.7239 13.9898V13.993ZM36.2002 21.6655V36.1808H20.7799C20.9193 29.9713 21.9995 24.0625 23.8811 18.5211L23.7576 18.9359C27.6888 20.5492 31.8693 21.4715 36.1147 21.6623L36.2002 21.6655ZM36.2002 39.8033V54.3187C31.8378 54.5177 27.543 55.4724 23.5073 57.1401L23.7576 57.0483C21.9995 51.9248 20.9193 46.0129 20.7799 39.8698V39.8033H36.2002ZM36.2002 57.9412V72.1748C31.8193 71.209 27.8692 66.8328 25.0626 60.4174C28.338 59.0558 32.1361 58.1692 36.1083 57.9476L36.2002 57.9444V57.9412ZM27.1723 70.6073C23.4406 69.3664 19.9498 67.4942 16.852 65.0722L16.9281 65.1292C18.3313 64.0273 19.9057 62.9887 21.5655 62.0862L21.7429 61.9975C23.073 65.1631 24.9171 68.0872 27.2008 70.6517L27.1723 70.62V70.6073ZM54.3003 61.9944C56.1375 62.9918 57.7118 64.0273 59.1912 65.1831L59.1151 65.1261C56.1086 67.4815 52.7268 69.3141 49.1116 70.5472L48.8709 70.62C51.0869 68.1151 52.8926 65.2755 54.2211 62.2065L54.3003 62.0007V61.9944ZM72.356 36.184H58.8585C58.7614 29.6323 57.6304 23.137 55.5071 16.9378L55.637 17.3748C57.8747 16.1971 59.9931 14.8058 61.9629 13.2203L61.8868 13.2773C68.1375 19.2843 71.8765 27.4375 72.3497 36.0922L72.3528 36.1808L72.356 36.184ZM14.1342 13.2805C15.9587 14.7624 18.0082 16.1209 20.1813 17.2767L20.3872 17.378C18.4454 22.9732 17.2765 29.4235 17.1656 36.1333V36.184H3.66501C4.12018 27.5033 7.85789 19.3197 14.1215 13.29L14.131 13.2805H14.1342ZM3.66818 39.8065H17.1656C17.2627 46.3582 18.3938 52.8535 20.517 59.0527L20.3872 58.6157C18.0082 59.8791 15.9619 61.2376 14.0613 62.7702L14.1373 62.7132C7.88668 56.7062 4.14765 48.553 3.67451 39.8983L3.67134 39.8097L3.66818 39.8065Z" fill="#050505"/>
<path d="M114.061 60.7047V21.2197H127.329C130.075 21.2197 132.539 21.5225 134.72 22.1281C136.901 22.6933 138.617 23.6824 139.869 25.0955C141.161 26.5086 141.808 28.4869 141.808 31.0304C141.808 32.8068 141.262 34.5227 140.172 36.178C139.081 37.8333 137.365 38.9637 135.023 39.5693V39.8116C137.85 40.296 139.99 41.3054 141.444 42.8396C142.898 44.3334 143.625 46.4126 143.625 49.0772C143.625 51.7419 142.959 53.9422 141.626 55.6782C140.293 57.3739 138.476 58.6457 136.174 59.4935C133.912 60.301 131.347 60.7047 128.48 60.7047H114.061ZM122.967 37.0864H126.905C129.085 37.0864 130.661 36.6624 131.63 35.8146C132.599 34.9264 133.084 33.7354 133.084 32.2416C133.084 30.7881 132.579 29.7586 131.569 29.153C130.6 28.507 129.065 28.1841 126.965 28.1841H122.967V37.0864ZM122.967 53.7403H127.753C130.176 53.7403 131.973 53.2962 133.144 52.408C134.316 51.5198 134.901 50.1875 134.901 48.4111C134.901 46.675 134.316 45.4234 133.144 44.6563C131.973 43.8893 130.176 43.5057 127.753 43.5057H122.967V53.7403Z" fill="#050505"/>
<path d="M150.144 60.7047V21.2197H164.139C166.925 21.2197 169.47 21.6032 171.772 22.3703C174.074 23.097 175.912 24.3688 177.285 26.1856C178.698 27.962 179.405 30.4046 179.405 33.5133C179.405 36.5413 178.698 39.0041 177.285 40.9016C175.912 42.7992 174.074 44.2122 171.772 45.1408C169.47 46.029 166.925 46.4731 164.139 46.4731H159.05V60.7047H150.144ZM159.05 39.3876H163.412C165.754 39.3876 167.531 38.9032 168.743 37.9342C169.995 36.9249 170.621 35.4512 170.621 33.5133C170.621 31.5754 169.995 30.2229 168.743 29.4558C167.531 28.6887 165.754 28.3052 163.412 28.3052H159.05V39.3876ZM162.503 44.1719L168.682 38.4187L181.283 60.7047H171.287L162.503 44.1719Z" fill="#050505"/>
<path d="M186.712 60.7047V53.1953H195.92V28.7291H186.712V21.2197H214.095V28.7291H204.886V53.1953H214.095V60.7047H186.712Z" fill="#050505"/>
<path d="M222.795 60.7047V21.2197H233.7C237.537 21.2197 240.869 21.906 243.696 23.2787C246.563 24.6514 248.785 26.7912 250.36 29.6981C251.935 32.5646 252.722 36.2587 252.722 40.7805C252.722 45.3023 251.935 49.0368 250.36 51.9841C248.825 54.9313 246.664 57.1317 243.877 58.5851C241.091 59.9982 237.88 60.7047 234.245 60.7047H222.795ZM231.761 53.4981H233.215C235.315 53.4981 237.133 53.0944 238.667 52.2869C240.202 51.4794 241.394 50.1471 242.242 48.2899C243.13 46.4328 243.575 43.9296 243.575 40.7805C243.575 37.6314 243.13 35.1686 242.242 33.3922C241.394 31.5754 240.202 30.3037 238.667 29.5769C237.133 28.8098 235.315 28.4263 233.215 28.4263H231.761V53.4981Z" fill="#050505"/>
<path d="M275.659 61.4314C272.307 61.4314 269.258 60.6845 266.511 59.1907C263.765 57.6565 261.584 55.3956 259.969 52.408C258.353 49.38 257.545 45.6455 257.545 41.2044C257.545 36.8037 258.353 33.0692 259.969 30.0009C261.584 26.8921 263.765 24.5303 266.511 22.9154C269.298 21.3004 272.388 20.493 275.78 20.493C278.446 20.493 280.728 21.0178 282.626 22.0675C284.524 23.0768 286.099 24.2275 287.351 25.5194L282.444 31.0304C281.596 30.1825 280.667 29.4962 279.658 28.9713C278.648 28.4465 277.355 28.1841 275.78 28.1841C274.084 28.1841 272.549 28.7089 271.176 29.7586C269.803 30.7679 268.713 32.2214 267.905 34.1189C267.137 36.0165 266.754 38.2774 266.754 40.9016C266.754 43.6066 267.097 45.9281 267.784 47.866C268.47 49.7636 269.52 51.217 270.934 52.2263C272.347 53.2357 274.084 53.7403 276.144 53.7403C276.911 53.7403 277.638 53.6394 278.325 53.4375C279.052 53.2357 279.617 52.9329 280.021 52.5291V45.7464H274.266V38.4792H288.018V56.6472C286.685 57.8988 284.908 59.009 282.687 59.978C280.506 60.9469 278.163 61.4314 275.659 61.4314Z" fill="#050505"/>
<path d="M296.779 60.7047V21.2197H322.95V28.7291H305.745V36.6624H320.345V44.1113H305.745V53.1953H323.556V60.7047H296.779Z" fill="#050505"/>
<path d="M333.043 60.7047L327.773 21.2197H337.042L338.253 42.234C338.253 43.3644 338.274 44.4747 338.314 45.5647C338.354 46.6144 338.375 47.6843 338.375 48.7744C338.415 49.8241 338.435 50.9546 338.435 52.1658H338.677C338.839 50.9546 339.021 49.8241 339.223 48.7744C339.465 47.6843 339.707 46.5943 339.95 45.5042C340.192 44.4141 340.414 43.324 340.616 42.234L343.282 31.2121H348.976L351.46 42.234C351.703 43.324 351.925 44.3939 352.127 45.4436C352.329 46.4933 352.551 47.5834 352.793 48.7139C353.035 49.8039 353.237 50.9546 353.399 52.1658H353.641C353.682 50.9546 353.702 49.8039 353.702 48.7139C353.742 47.5834 353.762 46.4933 353.762 45.4436C353.803 44.3939 353.843 43.324 353.883 42.234L354.974 21.2197H363.637L358.791 60.7047H349.219L346.917 48.4716C346.674 47.22 346.452 45.9483 346.25 44.6563C346.048 43.3644 345.907 42.133 345.826 40.9622H345.644C345.523 42.133 345.382 43.3644 345.22 44.6563C345.059 45.9483 344.857 47.22 344.615 48.4716L342.312 60.7047H333.043Z" fill="#050505"/>
<path d="M382.03 61.4314C378.88 61.4314 376.114 60.6441 373.731 59.0696C371.348 57.495 369.49 55.1938 368.157 52.1658C366.824 49.0974 366.158 45.3023 366.158 40.7805C366.158 36.3798 366.824 32.6857 368.157 29.6981C369.49 26.6701 371.348 24.389 373.731 22.8548C376.114 21.2802 378.88 20.493 382.03 20.493C385.181 20.493 387.947 21.2802 390.33 22.8548C392.713 24.389 394.571 26.6701 395.904 29.6981C397.236 32.6857 397.903 36.3798 397.903 40.7805C397.903 45.3023 397.236 49.0974 395.904 52.1658C394.571 55.1938 392.713 57.495 390.33 59.0696C387.947 60.6441 385.181 61.4314 382.03 61.4314ZM382.03 53.7403C383.404 53.7403 384.595 53.2558 385.605 52.2869C386.614 51.2776 387.382 49.8241 387.907 47.9266C388.472 45.9887 388.755 43.6066 388.755 40.7805C388.755 38.0351 388.472 35.7339 387.907 33.8767C387.382 32.0195 386.614 30.6065 385.605 29.6375C384.595 28.6685 383.404 28.1841 382.03 28.1841C380.657 28.1841 379.466 28.6685 378.456 29.6375C377.446 30.6065 376.659 32.0195 376.093 33.8767C375.568 35.7339 375.306 38.0351 375.306 40.7805C375.306 43.6066 375.568 45.9887 376.093 47.9266C376.659 49.8241 377.446 51.2776 378.456 52.2869C379.466 53.2558 380.657 53.7403 382.03 53.7403Z" fill="#050505"/>
<path d="M404.422 60.7047V21.2197H418.416C421.203 21.2197 423.747 21.6032 426.05 22.3703C428.352 23.097 430.189 24.3688 431.563 26.1856C432.976 27.962 433.683 30.4046 433.683 33.5133C433.683 36.5413 432.976 39.0041 431.563 40.9016C430.189 42.7992 428.352 44.2122 426.05 45.1408C423.747 46.029 421.203 46.4731 418.416 46.4731H413.327V60.7047H404.422ZM413.327 39.3876H417.689C420.032 39.3876 421.809 38.9032 423.021 37.9342C424.273 36.9249 424.899 35.4512 424.899 33.5133C424.899 31.5754 424.273 30.2229 423.021 29.4558C421.809 28.6887 420.032 28.3052 417.689 28.3052H413.327V39.3876ZM416.781 44.1719L422.96 38.4187L435.561 60.7047H425.565L416.781 44.1719Z" fill="#050505"/>
<path d="M442.989 60.7047V21.2197H451.894V53.1953H469.463V60.7047H442.989Z" fill="#050505"/>
<path d="M477.073 60.7047V21.2197H487.977C491.814 21.2197 495.146 21.906 497.973 23.2787C500.841 24.6514 503.062 26.7912 504.637 29.6981C506.212 32.5646 507 36.2587 507 40.7805C507 45.3023 506.212 49.0368 504.637 51.9841C503.103 54.9313 500.942 57.1317 498.155 58.5851C495.368 59.9982 492.158 60.7047 488.523 60.7047H477.073ZM486.039 53.4981H487.493C489.593 53.4981 491.41 53.0944 492.945 52.2869C494.48 51.4794 495.671 50.1471 496.519 48.2899C497.408 46.4328 497.852 43.9296 497.852 40.7805C497.852 37.6314 497.408 35.1686 496.519 33.3922C495.671 31.5754 494.48 30.3037 492.945 29.5769C491.41 28.8098 489.593 28.4263 487.493 28.4263H486.039V53.4981Z" fill="#050505"/>
</svg>
