<svg width="8" height="14" viewBox="0 0 8 14" fill="none" xmlns="http://www.w3.org/2000/svg">
<path fill-rule="evenodd" clip-rule="evenodd" d="M0.292658 8.06232C0.105187 7.8748 -0.00012892 7.62049 -0.000128931 7.35532C-0.000128943 7.09016 0.105187 6.83585 0.292658 6.64832L5.94966 0.991324C6.0419 0.895813 6.15225 0.819631 6.27425 0.767222C6.39626 0.714813 6.52748 0.687227 6.66026 0.686073C6.79304 0.684919 6.92471 0.710221 7.04761 0.760502C7.17051 0.810783 7.28216 0.885036 7.37605 0.978929C7.46995 1.07282 7.5442 1.18447 7.59448 1.30737C7.64476 1.43027 7.67006 1.56195 7.66891 1.69472C7.66775 1.8275 7.64017 1.95872 7.58776 2.08073C7.53535 2.20273 7.45917 2.31308 7.36366 2.40532L2.41366 7.35532L7.36366 12.3053C7.54582 12.4939 7.64661 12.7465 7.64433 13.0087C7.64205 13.2709 7.53688 13.5217 7.35148 13.7071C7.16607 13.8925 6.91526 13.9977 6.65306 14C6.39086 14.0023 6.13826 13.9015 5.94966 13.7193L0.292658 8.06232Z" fill="black"/>
</svg>
