<svg width="9" height="14" viewBox="0 0 9 14" fill="none" xmlns="http://www.w3.org/2000/svg">
<path fill-rule="evenodd" clip-rule="evenodd" d="M8.19904 6.11541C8.38651 6.30294 8.49183 6.55725 8.49183 6.82241C8.49183 7.08758 8.38651 7.34188 8.19904 7.52941L2.54204 13.1864C2.4498 13.2819 2.33945 13.3581 2.21745 13.4105C2.09544 13.4629 1.96422 13.4905 1.83144 13.4917C1.69866 13.4928 1.56698 13.4675 1.44409 13.4172C1.32119 13.367 1.20954 13.2927 1.11565 13.1988C1.02175 13.1049 0.947501 12.9933 0.89722 12.8704C0.846939 12.7475 0.821638 12.6158 0.822792 12.483C0.823945 12.3502 0.851532 12.219 0.903941 12.097C0.95635 11.975 1.03253 11.8647 1.12804 11.7724L6.07804 6.82241L1.12804 1.87241C0.945883 1.68381 0.845089 1.43121 0.847367 1.16901C0.849646 0.906814 0.954814 0.656 1.14022 0.470592C1.32563 0.285185 1.57644 0.180015 1.83864 0.177736C2.10084 0.175458 2.35344 0.276252 2.54204 0.45841L8.19904 6.11541Z" fill="black"/>
</svg>
